<?xml version="1.0" encoding="UTF-8"?>
<svg version="1.1" xmlns="http://www.w3.org/2000/svg" width="1024" height="1024">
<path d="M0 0 C337.92 0 675.84 0 1024 0 C1024 337.92 1024 675.84 1024 1024 C686.08 1024 348.16 1024 0 1024 C0 686.08 0 348.16 0 0 Z " fill="#FAFAFA" transform="translate(0,0)"/>
<path d="M0 0 C9.31935515 7.09440309 15.36394146 17.37945265 20.58203125 27.625 C21.21371802 28.83807778 21.84690442 30.05037562 22.48144531 31.26196289 C23.82818693 33.83714113 25.16745932 36.41601366 26.50195312 38.99755859 C28.59743396 43.04193556 30.7337765 47.06381604 32.87890625 51.08203125 C41.74890264 67.71106165 50.43553975 84.42861963 59.02270508 101.20532227 C64.07762185 111.08058937 69.18984739 120.92186275 74.38232422 130.72558594 C76.79946874 135.3080276 79.18842309 139.90523459 81.58203125 144.5 C85.21237429 151.46658235 88.85435344 158.42668246 92.51953125 165.375 C96.96950102 173.81260503 101.36927629 182.27593033 105.76538086 190.74169922 C109.01916325 197.00430935 112.28893036 203.25798474 115.58203125 209.5 C116.78667443 211.7873131 117.99070371 214.07494772 119.19433594 216.36279297 C120.22036713 218.31268547 121.24717839 220.26216755 122.27441406 222.21142578 C124.08953555 225.65957077 125.89878307 229.11074643 127.70703125 232.5625 C128.28839844 233.66464844 128.86976563 234.76679688 129.46875 235.90234375 C130.00371094 236.92585937 130.53867187 237.949375 131.08984375 239.00390625 C131.5708252 239.91986572 132.05180664 240.8358252 132.54736328 241.77954102 C133.58203125 244 133.58203125 244 133.58203125 246 C136.62989527 244.47606799 136.81265132 242.14886708 137.95703125 239 C139.97604617 233.56603403 142.14897491 228.26029499 144.58203125 223 C145.24203125 223 145.90203125 223 146.58203125 223 C146.67742188 222.14664063 146.7728125 221.29328125 146.87109375 220.4140625 C147.6700618 216.57725987 149.05818003 213.79613702 150.95703125 210.375 C151.86582031 208.71597656 151.86582031 208.71597656 152.79296875 207.0234375 C154.27316276 204.52197426 155.67144944 202.18809649 157.58203125 200 C158.24203125 200 158.90203125 200 159.58203125 200 C159.97648438 199.11248047 159.97648438 199.11248047 160.37890625 198.20703125 C165.23603123 189.29704549 177.33946997 184.08085376 186.58203125 181 C190.4103119 180.71398357 194.24426541 180.72217861 198.08203125 180.6875 C199.12101563 180.65849609 200.16 180.62949219 201.23046875 180.59960938 C215.71028669 180.48225424 226.72047832 186.82001668 237.1953125 196.38671875 C248.64820701 208.34007587 252.82478153 222.43698432 253.078125 238.6171875 C252.24763125 250.33063885 246.42372513 261.27551913 241.51953125 271.75 C240.81640525 273.26764545 240.11403265 274.78564014 239.41235352 276.30395508 C237.92011869 279.52917236 236.42293581 282.75202575 234.921875 285.97314453 C232.54764608 291.06950253 230.18886786 296.17292448 227.83203125 301.27734375 C220.11416887 317.98284056 212.34659702 334.66430971 204.51446533 351.31652832 C200.90496221 358.99323469 197.34527365 366.68796479 193.89453125 374.4375 C192.46405394 377.62820092 191.02520516 380.81502294 189.58203125 384 C189.12231934 385.01739258 188.66260742 386.03478516 188.18896484 387.08300781 C176.72473156 412.27822359 176.72473156 412.27822359 168.58203125 420 C167.82792969 420.72703125 167.07382812 421.4540625 166.296875 422.203125 C154.15682764 432.86267878 139.18223937 436.56694696 123.390625 436.3125 C110.01802955 435.2152614 96.76896862 428.79308582 87.58203125 419 C79.1673017 408.99820948 73.68138807 397.23879226 67.88671875 385.625 C67.54526825 384.9414595 67.20381775 384.25791901 66.85202026 383.55366516 C64.67077921 379.18570627 62.49367106 374.81569426 60.31768799 370.44511414 C58.8252773 367.44817194 57.33143836 364.45194276 55.83740234 361.45581055 C55.08667798 359.94933537 54.33667227 358.44250183 53.58740234 356.93530273 C49.41656847 348.54721148 45.18396784 340.20098272 40.79296875 331.92578125 C34.11216193 319.32205226 27.81498557 306.52605512 21.46826172 293.75195312 C15.85736075 282.46544276 10.21228923 271.20941541 4.29977417 260.07757568 C-0.914777 250.22811497 -5.83748519 240.23149587 -10.79296875 230.25 C-12.71507786 226.37902388 -14.63994731 222.50943783 -16.56640625 218.640625 C-17.21021744 217.34055511 -17.21021744 217.34055511 -17.86703491 216.01422119 C-19.7171193 212.29906939 -21.59562345 208.65069298 -23.72119141 205.08496094 C-25.41796875 202 -25.41796875 202 -25.41796875 199 C-26.07796875 199 -26.73796875 199 -27.41796875 199 C-27.68496582 199.85239258 -27.95196289 200.70478516 -28.22705078 201.58300781 C-29.4441248 205.07504716 -30.89029139 208.3301238 -32.47265625 211.671875 C-32.9183345 212.61737213 -32.9183345 212.61737213 -33.37301636 213.58197021 C-34.01085624 214.93432048 -34.65019226 216.28596592 -35.29089355 217.63696289 C-37.00910072 221.26007971 -38.71666265 224.88821448 -40.42578125 228.515625 C-40.7700415 229.24547607 -41.11430176 229.97532715 -41.46899414 230.72729492 C-44.40941031 236.9663043 -47.29443974 243.22992496 -50.16796875 249.5 C-56.04306507 262.28709347 -62.0932896 274.98966357 -68.14086914 287.69580078 C-73.31983701 298.57762554 -78.47818163 309.4687278 -83.60546875 320.375 C-83.92713013 321.05890808 -84.2487915 321.74281616 -84.5802002 322.44744873 C-87.92787716 329.5653107 -91.27111958 336.68523769 -94.60871887 343.80783081 C-96.03458608 346.84987178 -97.4619829 349.89119377 -98.88955688 352.93243408 C-99.55827639 354.35813874 -100.22626496 355.78418654 -100.8934021 357.21063232 C-103.04775928 361.81698768 -105.22010526 366.41423483 -107.41796875 371 C-107.75803955 371.71046478 -108.09811035 372.42092957 -108.44848633 373.15292358 C-109.49187083 375.321271 -110.54677286 377.48362416 -111.60546875 379.64453125 C-111.92036255 380.29982819 -112.23525635 380.95512512 -112.55969238 381.63027954 C-115.57292055 387.72014422 -119.53965709 392.33830964 -124.41796875 397 C-125.33642578 397.94746094 -125.33642578 397.94746094 -126.2734375 398.9140625 C-132.05802368 404.51364059 -139.1582975 407.71276535 -146.41796875 411 C-147.23910156 411.37511719 -148.06023437 411.75023437 -148.90625 412.13671875 C-161.8018745 416.56896294 -179.10786905 415.33549158 -191.41796875 410 C-192.34609375 409.59910156 -193.27421875 409.19820312 -194.23046875 408.78515625 C-213.49569701 399.34409979 -222.56044273 381.37941003 -231.53179932 362.95983887 C-233.58306073 358.75036092 -235.66234432 354.55478736 -237.7421875 350.359375 C-238.14796021 349.53995422 -238.55373291 348.72053345 -238.97180176 347.87628174 C-242.18268714 341.41638356 -245.54096727 335.05767137 -249.04296875 328.75 C-252.7107046 322.14263054 -256.2750684 315.50344885 -259.66796875 308.75 C-260.05162598 307.99170898 -260.4352832 307.23341797 -260.83056641 306.45214844 C-263.41796875 301.2482036 -263.41796875 301.2482036 -263.41796875 299 C-264.07796875 299 -264.73796875 299 -265.41796875 299 C-265.67835938 300.01320313 -265.93875 301.02640625 -266.20703125 302.0703125 C-267.30631418 305.90149578 -268.94850644 309.352696 -270.79296875 312.875 C-271.52530057 314.30894587 -272.25564213 315.7439093 -272.984375 317.1796875 C-273.37898926 317.95666992 -273.77360352 318.73365234 -274.18017578 319.53417969 C-276.4197607 323.99568021 -278.57409696 328.4978354 -280.73046875 333 C-281.21773437 334.01650635 -281.705 335.0330127 -282.20703125 336.08032227 C-285.55339002 343.07410882 -288.88027904 350.07705169 -292.203125 357.08203125 C-292.62155167 357.96390106 -293.03997833 358.84577087 -293.47108459 359.75436401 C-295.56381409 364.16539835 -297.65500898 368.57714817 -299.7434082 372.99023438 C-303.50930734 380.93930707 -307.29727899 388.86740493 -311.28588867 396.70776367 C-312.22120616 398.60159501 -313.05300171 400.54616721 -313.85546875 402.5 C-321.78953358 420.27230521 -334.25309011 433.55150907 -352.40698242 440.79345703 C-357.9478407 442.82971189 -362.84833825 443.48019999 -368.73046875 443.375 C-369.56006104 443.36484863 -370.38965332 443.35469727 -371.24438477 443.34423828 C-387.3973955 442.93880227 -402.06188598 436.62808476 -413.41796875 425 C-420.11425356 416.86081315 -423.88158912 408.22100601 -426.41796875 398 C-426.91296875 396.515 -426.91296875 396.515 -427.41796875 395 C-428.12231661 385.27017142 -426.69482437 375.62201917 -425.41796875 366 C-424.75796875 366 -424.09796875 366 -423.41796875 366 C-423.35609375 365.071875 -423.29421875 364.14375 -423.23046875 363.1875 C-422.48782068 357.71890969 -419.82170111 352.9050332 -417.41796875 348 C-416.75796875 348 -416.09796875 348 -415.41796875 348 C-415.31323242 347.14164551 -415.20849609 346.28329102 -415.10058594 345.39892578 C-414.36543487 341.73842036 -413.15400577 338.95822129 -411.49609375 335.6171875 C-411.2000676 335.01406738 -410.90404144 334.41094727 -410.5990448 333.78955078 C-409.96140727 332.49200622 -409.32036372 331.19613089 -408.67623901 329.90179443 C-406.94498515 326.4216802 -405.23962443 322.9288867 -403.53125 319.4375 C-403.00840172 318.37134964 -403.00840172 318.37134964 -402.47499084 317.28366089 C-399.16828006 310.52621151 -395.99895667 303.709986 -392.85546875 296.875 C-388.19022208 286.75264618 -383.39967013 276.69778961 -378.53042603 266.67266846 C-374.27533443 257.90705968 -370.12055655 249.09987574 -366.04296875 240.25 C-361.28989991 229.93805949 -356.3942618 219.70551529 -351.41796875 209.5 C-346.42137767 199.25267589 -341.50574727 188.97787378 -336.73046875 178.625 C-332.37960731 169.1966718 -327.97301274 159.79895374 -323.48046875 150.4375 C-322.96073486 149.34969238 -322.44100098 148.26188477 -321.90551758 147.14111328 C-312.81566397 128.26996193 -303.27762488 113.77005949 -283.41796875 105 C-270.56796877 101.09036692 -255.61629795 101.31568451 -243.41796875 107 C-242.47566406 107.43570313 -241.53335938 107.87140625 -240.5625 108.3203125 C-221.90722059 117.73801217 -214.18916121 135.19363766 -204.75390625 152.82421875 C-201.67281966 158.56298868 -198.4798493 164.23014833 -195.23046875 169.875 C-189.86646097 179.19970266 -184.60319777 188.57477778 -179.41796875 198 C-179.0523584 198.66128906 -178.68674805 199.32257813 -178.31005859 200.00390625 C-177.29967219 201.83341249 -176.29518748 203.66600967 -175.29296875 205.5 C-174.73351562 206.5209375 -174.1740625 207.541875 -173.59765625 208.59375 C-172.41796875 211 -172.41796875 211 -172.41796875 213 C-171.75796875 213 -171.09796875 213 -170.41796875 213 C-170.29446045 212.27159912 -170.17095215 211.54319824 -170.04370117 210.79272461 C-169.43172577 208.06139934 -168.58353211 205.8487662 -167.40625 203.31640625 C-166.98480713 202.40318604 -166.56336426 201.48996582 -166.12915039 200.54907227 C-165.66758545 199.56350342 -165.20602051 198.57793457 -164.73046875 197.5625 C-164.25150146 196.52859131 -163.77253418 195.49468262 -163.27905273 194.42944336 C-161.95230432 191.56950711 -160.62047378 188.71201481 -159.28540039 185.85595703 C-158.38666443 183.93302127 -157.48908668 182.00954847 -156.59179688 180.0859375 C-151.36475936 168.88119496 -151.36475936 168.88119496 -149.19067383 164.24243164 C-146.19970242 157.85656479 -143.2538357 151.45628145 -140.41796875 145 C-139.70511628 143.39422512 -138.99155562 141.78876446 -138.27734375 140.18359375 C-137.92929687 139.40048828 -137.58125 138.61738281 -137.22265625 137.81054688 C-135.62109375 134.20703125 -134.01953125 130.60351562 -132.41796875 127 C-131.75796875 127 -131.09796875 127 -130.41796875 127 C-130.01578125 125.1746875 -130.01578125 125.1746875 -129.60546875 123.3125 C-128.70968317 119.72309346 -127.37126074 117.15531784 -125.41796875 114 C-124.44939153 111.72339093 -123.56383877 109.41944666 -122.66796875 107.11328125 C-121.08228984 103.16394972 -119.38061342 99.27062116 -117.66796875 95.375 C-117.34989258 94.65143311 -117.03181641 93.92786621 -116.70410156 93.18237305 C-115.94329137 91.45437149 -115.18080963 89.72710605 -114.41796875 88 C-113.75796875 88 -113.09796875 88 -112.41796875 88 C-112.01771484 86.22882813 -112.01771484 86.22882813 -111.609375 84.421875 C-110.61214053 80.44689665 -109.15504594 76.94274941 -107.35546875 73.25 C-106.71858922 71.92387864 -106.083249 70.59701723 -105.44921875 69.26953125 C-104.94841797 68.22466553 -104.94841797 68.22466553 -104.4375 67.15869141 C-103.05647912 64.23460457 -101.73774225 61.28454213 -100.42211914 58.33056641 C-98.89907812 54.91357211 -97.35429471 51.50648821 -95.81201172 48.09814453 C-94.79895799 45.84671688 -93.79287957 43.59290558 -92.79345703 41.33544922 C-91.31830583 38.00561319 -89.8230495 34.6853259 -88.31741333 31.36917114 C-87.72701626 30.06019356 -87.14302932 28.74830199 -86.56613159 27.43331909 C-82.72141287 18.68371004 -78.29767172 11.71143031 -71.41796875 5 C-70.64251709 4.23816406 -69.86706543 3.47632813 -69.06811523 2.69140625 C-49.69545514 -15.90417252 -21.39790513 -13.24755432 0 0 Z " fill="#22B995" transform="translate(617.41796875,252)"/>
<path d="M0 0 C9.31935515 7.09440309 15.36394146 17.37945265 20.58203125 27.625 C21.21371802 28.83807778 21.84690442 30.05037562 22.48144531 31.26196289 C23.82818693 33.83714113 25.16745932 36.41601366 26.50195312 38.99755859 C28.59743396 43.04193556 30.7337765 47.06381604 32.87890625 51.08203125 C41.74890264 67.71106165 50.43553975 84.42861963 59.02270508 101.20532227 C64.07762185 111.08058937 69.18984739 120.92186275 74.38232422 130.72558594 C76.79946874 135.3080276 79.18842309 139.90523459 81.58203125 144.5 C85.21237429 151.46658235 88.85435344 158.42668246 92.51953125 165.375 C96.96950102 173.81260503 101.36927629 182.27593033 105.76538086 190.74169922 C109.01916325 197.00430935 112.28893036 203.25798474 115.58203125 209.5 C116.78667443 211.7873131 117.99070371 214.07494772 119.19433594 216.36279297 C120.22036713 218.31268547 121.24717839 220.26216755 122.27441406 222.21142578 C124.08953555 225.65957077 125.89878307 229.11074643 127.70703125 232.5625 C128.28839844 233.66464844 128.86976563 234.76679688 129.46875 235.90234375 C130.00371094 236.92585937 130.53867187 237.949375 131.08984375 239.00390625 C131.81131592 240.37784546 131.81131592 240.37784546 132.54736328 241.77954102 C133.58203125 244 133.58203125 244 133.58203125 246 C136.62989527 244.47606799 136.81265132 242.14886708 137.95703125 239 C139.97604617 233.56603403 142.14897491 228.26029499 144.58203125 223 C145.24203125 223 145.90203125 223 146.58203125 223 C146.67742187 222.14664063 146.7728125 221.29328125 146.87109375 220.4140625 C147.6700618 216.57725987 149.05818003 213.79613702 150.95703125 210.375 C151.56289063 209.26898438 152.16875 208.16296875 152.79296875 207.0234375 C154.27316276 204.52197426 155.67144944 202.18809649 157.58203125 200 C158.24203125 200 158.90203125 200 159.58203125 200 C159.845 199.40832031 160.10796875 198.81664062 160.37890625 198.20703125 C165.23603123 189.29704549 177.33946997 184.08085376 186.58203125 181 C190.4103119 180.71398357 194.24426541 180.72217861 198.08203125 180.6875 C199.12101562 180.65849609 200.16 180.62949219 201.23046875 180.59960938 C215.71028669 180.48225424 226.72047832 186.82001668 237.1953125 196.38671875 C248.64820701 208.34007587 252.82478153 222.43698432 253.078125 238.6171875 C252.24763125 250.33063885 246.42372513 261.27551913 241.51953125 271.75 C240.81640525 273.26764545 240.11403265 274.78564014 239.41235352 276.30395508 C237.92011869 279.52917236 236.42293581 282.75202575 234.921875 285.97314453 C232.54764608 291.06950253 230.18886786 296.17292448 227.83203125 301.27734375 C220.11416887 317.98284056 212.34659702 334.66430971 204.51446533 351.31652832 C200.90496221 358.99323469 197.34527365 366.68796479 193.89453125 374.4375 C192.46405394 377.62820092 191.02520516 380.81502294 189.58203125 384 C189.12231934 385.01739258 188.66260742 386.03478516 188.18896484 387.08300781 C176.72473156 412.27822359 176.72473156 412.27822359 168.58203125 420 C167.82792969 420.72703125 167.07382812 421.4540625 166.296875 422.203125 C154.15682764 432.86267878 139.18223937 436.56694696 123.390625 436.3125 C110.01802955 435.2152614 96.76896862 428.79308582 87.58203125 419 C79.1673017 408.99820948 73.68138807 397.23879226 67.88671875 385.625 C67.374543 384.59968925 67.374543 384.59968925 66.85202026 383.55366516 C64.67077921 379.18570627 62.49367106 374.81569426 60.31768799 370.44511414 C58.8252773 367.44817194 57.33143836 364.45194276 55.83740234 361.45581055 C55.08667798 359.94933537 54.33667227 358.44250183 53.58740234 356.93530273 C49.41656847 348.54721148 45.18396784 340.20098272 40.79296875 331.92578125 C34.11216193 319.32205226 27.81498557 306.52605512 21.46826172 293.75195312 C15.85079325 282.45223203 10.19923043 271.18264967 4.28164673 260.03678894 C-0.83048424 250.38161763 -5.67530814 240.59247093 -10.54296875 230.8125 C-11.48939041 228.91461733 -12.43600453 227.01683061 -13.3828125 225.11914062 C-15.21354122 221.44921605 -17.04326599 217.77879406 -18.87207031 214.10791016 C-22.37980925 207.06815783 -25.89875864 200.03402243 -29.41796875 193 C-30.45412378 190.92782686 -31.4901706 188.85559963 -32.5262146 186.78337097 C-33.20259092 185.4307225 -33.87929507 184.07823795 -34.55615234 182.72583008 C-36.11265347 179.61583265 -37.66500624 176.50392146 -39.20703125 173.38671875 C-43.26732248 165.1939825 -47.42168265 157.04989066 -51.6149292 148.92446899 C-52.51824868 147.17293222 -53.41859054 145.41986079 -54.31884766 143.66674805 C-57.39561096 137.72183762 -60.60652277 131.92437956 -64.09570312 126.21240234 C-65.93916534 123.12793879 -67.52362363 119.97767498 -69.10546875 116.75 C-69.78890779 115.36580902 -70.47251105 113.98169911 -71.15625 112.59765625 C-71.51799316 111.8617627 -71.87973633 111.12586914 -72.25244141 110.36767578 C-77.99496618 98.70219499 -83.80213712 87.07019484 -89.85546875 75.5625 C-90.45657471 74.41914185 -90.45657471 74.41914185 -91.06982422 73.25268555 C-93.43446449 68.78342561 -95.88640285 64.37689868 -98.41796875 60 C-99.90296875 60.99 -99.90296875 60.99 -101.41796875 62 C-99.49442736 55.8509492 -97.21757162 50.0011931 -94.50390625 44.16015625 C-94.12996735 43.35315781 -93.75602844 42.54615936 -93.37075806 41.71470642 C-92.58196379 40.02011043 -91.79020591 38.32689101 -90.99560547 36.63500977 C-89.80099207 34.07966234 -88.63101874 31.51391925 -87.4609375 28.94726562 C-83.15044813 19.65998641 -78.97340472 12.06681135 -71.41796875 5 C-70.64557861 4.24420654 -69.87318848 3.48841309 -69.07739258 2.7097168 C-49.74577444 -15.93317446 -21.37552326 -13.2336976 0 0 Z " fill="#3DEAC1" transform="translate(617.41796875,252)"/>
<path d="M0 0 C1.03898438 -0.02900391 2.07796875 -0.05800781 3.1484375 -0.08789062 C17.62825544 -0.20524576 28.63844707 6.13251668 39.11328125 15.69921875 C50.56617576 27.65257587 54.74275028 41.74948432 54.99609375 57.9296875 C54.1656 69.64313885 48.34169388 80.58801913 43.4375 91.0625 C42.734374 92.58014545 42.0320014 94.09814014 41.33032227 95.61645508 C39.83808744 98.84167236 38.34090456 102.06452575 36.83984375 105.28564453 C34.46561483 110.38200253 32.10683661 115.48542448 29.75 120.58984375 C22.03213762 137.29534056 14.26456577 153.97680971 6.43243408 170.62902832 C2.82293096 178.30573469 -0.7367576 186.00046479 -4.1875 193.75 C-5.61797731 196.94070092 -7.05682609 200.12752294 -8.5 203.3125 C-8.95971191 204.32989258 -9.41942383 205.34728516 -9.89306641 206.39550781 C-21.35729969 231.59072359 -21.35729969 231.59072359 -29.5 239.3125 C-30.25410156 240.03953125 -31.00820313 240.7665625 -31.78515625 241.515625 C-43.92520361 252.17517878 -58.89979188 255.87944696 -74.69140625 255.625 C-88.0640017 254.5277614 -101.31306263 248.10558582 -110.5 238.3125 C-115.36640133 232.52827052 -119.31779445 226.20694242 -123 219.625 C-123.350625 219.01978516 -123.70125 218.41457031 -124.0625 217.79101562 C-126.47194215 213.30731582 -127.37211029 209.3066407 -126.5 204.3125 C-125.39482314 200.82702803 -123.9143477 197.56312871 -122.375 194.25 C-121.93051514 193.26177246 -121.48603027 192.27354492 -121.02807617 191.25537109 C-120.05142074 189.08869293 -119.06795855 186.9250734 -118.07861328 184.76416016 C-116.45211255 181.20779342 -114.84632848 177.64244694 -113.24609375 174.07421875 C-109.99031427 166.82259986 -106.70875224 159.58281433 -103.42248535 152.3449707 C-102.50849209 150.33121024 -101.59538813 148.31704914 -100.68261719 146.30273438 C-92.24242854 127.67724747 -83.73562647 109.08293234 -75.18589783 90.50747681 C-74.20988756 88.38595732 -73.23519482 86.26383685 -72.26074219 84.14160156 C-71.15775531 81.73973686 -70.04854782 79.34115966 -68.93457031 76.94433594 C-68.48436523 75.97012695 -68.03416016 74.99591797 -67.5703125 73.9921875 C-66.99821045 72.76218018 -66.99821045 72.76218018 -66.41455078 71.50732422 C-65.44086344 69.34728799 -65.44086344 69.34728799 -64.99560547 67.08251953 C-64.83205566 66.49841309 -64.66850586 65.91430664 -64.5 65.3125 C-63.84 64.9825 -63.18 64.6525 -62.5 64.3125 C-61.63784473 62.34185939 -60.85970842 60.33411808 -60.125 58.3125 C-58.10598508 52.87853403 -55.93305634 47.57279499 -53.5 42.3125 C-52.84 42.3125 -52.18 42.3125 -51.5 42.3125 C-51.40460938 41.45914063 -51.30921875 40.60578125 -51.2109375 39.7265625 C-50.41196945 35.88975987 -49.02385122 33.10863702 -47.125 29.6875 C-46.51914062 28.58148438 -45.91328125 27.47546875 -45.2890625 26.3359375 C-43.80886849 23.83447426 -42.41058181 21.50059649 -40.5 19.3125 C-39.84 19.3125 -39.18 19.3125 -38.5 19.3125 C-38.23703125 18.72082031 -37.9740625 18.12914062 -37.703125 17.51953125 C-30.77632351 4.81289864 -13.12321788 0.11858329 0 0 Z " fill="#4AEAC8" transform="translate(815.5,432.6875)"/>
<path d="M0 0 C3.2500453 2.16669687 3.82111995 3.59128588 5.22265625 7.11328125 C6.42474355 10.03091023 7.97735803 12.73859845 9.5 15.5 C12.68923669 21.37350165 15.61538143 27.33885362 18.45703125 33.38671875 C23.82711069 44.70887684 29.42319603 55.91360645 35.04296875 67.11328125 C35.49167957 68.00797497 35.9403904 68.90266869 36.40269852 69.82447433 C40.62607546 78.24483998 44.85463223 86.66259882 49.0871582 95.07836914 C51.42441636 99.72620211 53.75783459 104.37594596 56.08886147 109.02690697 C56.97210969 110.78719639 57.8568751 112.5467254 58.74318504 114.30547523 C59.96935467 116.73872677 61.19067076 119.17435544 62.41088867 121.6105957 C62.77698746 122.33403168 63.14308624 123.05746765 63.52027893 123.80282593 C66 128.77209528 66 128.77209528 66 131 C66.66 131.33 67.32 131.66 68 132 C67.34 132 66.68 132 66 132 C65.73960937 133.01320313 65.47921875 134.02640625 65.2109375 135.0703125 C64.11165457 138.90149578 62.46946231 142.352696 60.625 145.875 C59.89266818 147.30894587 59.16232662 148.7439093 58.43359375 150.1796875 C58.03897949 150.95666992 57.64436523 151.73365234 57.23779297 152.53417969 C54.99820805 156.99568021 52.84387179 161.4978354 50.6875 166 C50.20023438 167.01650635 49.71296875 168.0330127 49.2109375 169.08032227 C45.86457873 176.07410882 42.53768971 183.07705169 39.21484375 190.08203125 C38.79641708 190.96390106 38.37799042 191.84577087 37.94688416 192.75436401 C35.85415466 197.16539835 33.76295977 201.57714817 31.67456055 205.99023438 C27.90866141 213.93930707 24.12068976 221.86740493 20.13208008 229.70776367 C19.19676259 231.60159501 18.36496704 233.54616721 17.5625 235.5 C9.62843517 253.27230521 -2.83512136 266.55150907 -20.98901367 273.79345703 C-26.52987195 275.82971189 -31.4303695 276.48019999 -37.3125 276.375 C-38.14209229 276.36484863 -38.97168457 276.35469727 -39.82641602 276.34423828 C-55.97942675 275.93880227 -70.64391723 269.62808476 -82 258 C-88.69628481 249.86081315 -92.46362037 241.22100601 -95 231 C-95.33 230.01 -95.66 229.02 -96 228 C-96.70434786 218.27017142 -95.27685562 208.62201917 -94 199 C-93.34 199 -92.68 199 -92 199 C-91.938125 198.071875 -91.87625 197.14375 -91.8125 196.1875 C-91.06985193 190.71890969 -88.40373236 185.9050332 -86 181 C-85.34 181 -84.68 181 -84 181 C-83.89526367 180.14164551 -83.79052734 179.28329102 -83.68261719 178.39892578 C-82.94746612 174.73842036 -81.73603702 171.95822129 -80.078125 168.6171875 C-79.78209885 168.01406738 -79.48607269 167.41094727 -79.18107605 166.78955078 C-78.54343852 165.49200622 -77.90239497 164.19613089 -77.25827026 162.90179443 C-75.5270164 159.4216802 -73.82165568 155.9288867 -72.11328125 152.4375 C-71.59043297 151.37134964 -71.59043297 151.37134964 -71.05702209 150.28366089 C-67.75031131 143.52621151 -64.58098792 136.709986 -61.4375 129.875 C-56.77225333 119.75264618 -51.98170138 109.69778961 -47.11245728 99.67266846 C-42.857366 90.90706033 -38.70254693 82.09989426 -34.625 73.25 C-29.52844713 62.19166369 -24.25602095 51.22919665 -18.91851807 40.28579712 C-12.41554758 26.94543 -6.14627358 13.5087021 0 0 Z " fill="#6DD59A" transform="translate(286,419)"/>
<path d="M0 0 C1.41345703 0.65355469 1.41345703 0.65355469 2.85546875 1.3203125 C21.51074816 10.73801217 29.22880754 28.19363766 38.6640625 45.82421875 C41.74515024 51.56299082 44.93817859 57.23011283 48.1875 62.875 C53.14893356 71.50178278 58.03916875 80.16178055 62.82421875 88.88769531 C64.01240353 91.02228308 65.23653937 93.13276026 66.46875 95.2421875 C67.22942251 96.57797934 67.98985113 97.91391011 68.75 99.25 C69.1099707 99.84603027 69.46994141 100.44206055 69.84082031 101.05615234 C71.48930768 104.00372859 72.14014771 105.47327126 71.25732422 108.79125977 C69.95940444 112.10360145 68.56579667 115.33890378 67.0859375 118.57421875 C66.65578087 119.51806931 66.65578087 119.51806931 66.2169342 120.48098755 C65.27257 122.55118566 64.32387218 124.6193647 63.375 126.6875 C62.70947018 128.1433606 62.04419152 129.59933603 61.37915039 131.05541992 C59.9780708 134.12194907 58.5752323 137.1876659 57.17138672 140.25292969 C55.35520493 144.2205128 53.5462449 148.19133699 51.74023438 152.16355896 C50.31777941 155.29207968 48.89342986 158.41973586 47.46881104 161.54727173 C46.79040449 163.03736118 46.11261206 164.52773041 45.43548584 166.0184021 C41.87612132 173.85093474 38.2333318 181.61240273 34.34692383 189.28979492 C32.31062001 193.387132 30.46615811 197.56229292 28.625 201.75 C25.84078274 208.0238011 22.94489018 214.20524797 19.8125 220.3125 C16.54155152 226.69955917 13.79908583 233.19344136 11.2265625 239.890625 C10.25541532 242.35251403 9.20188632 244.64961628 8 247 C1.46534078 235.19992411 -4.94249675 223.33400775 -11.17745972 211.37289429 C-11.84856702 210.08694831 -12.52183315 208.80212657 -13.19729614 207.51846313 C-14.15224562 205.70175658 -15.09868895 203.88086413 -16.04296875 202.05859375 C-16.58977295 201.00986084 -17.13657715 199.96112793 -17.69995117 198.88061523 C-18.90666481 196.20680976 -19.57069331 193.88942357 -20 191 C-20.66 191 -21.32 191 -22 191 C-65.16540527 104.66918945 -65.16540527 104.66918945 -66.76450348 101.4707489 C-67.78445997 99.43099618 -68.80466958 97.39137 -69.82515717 95.35188293 C-72.03181 90.94117281 -74.2355743 86.52913694 -76.42700195 82.11083984 C-76.79365211 81.3730278 -77.16030228 80.63521576 -77.53806305 79.87504578 C-78.1975779 78.54729747 -78.85553433 77.21877313 -79.51143646 75.88923645 C-81.19953873 72.49414753 -83.02329519 69.23441487 -85 66 C-86.94721226 62.10557548 -87.0926745 60.17892093 -86 56 C-85.21668683 54.11984348 -84.37397512 52.26383973 -83.48828125 50.4296875 C-82.97716797 49.3675 -82.46605469 48.3053125 -81.93945312 47.2109375 C-81.13411133 45.55964844 -81.13411133 45.55964844 -80.3125 43.875 C-79.79494141 42.79734375 -79.27738281 41.7196875 -78.74414062 40.609375 C-69.53671717 21.57534893 -60.06722502 6.86172228 -40 -2 C-27.15000002 -5.90963308 -12.1983292 -5.68431549 0 0 Z " fill="#169C79" transform="translate(374,359)"/>
<path d="M0 0 C0.66 0.33 1.32 0.66 2 1 C0.81323934 5.10801767 0.10551666 6.89448334 -3 10 C-2.01 6.7 -1.02 3.4 0 0 Z " fill="#30A681" transform="translate(589,448)"/>
</svg>
